<?xml version="1.0" standalone="no"?><!DOCTYPE svg PUBLIC "-//W3C//DTD SVG 1.1//EN" "http://www.w3.org/Graphics/SVG/1.1/DTD/svg11.dtd"><svg t="1761535556955" class="icon" viewBox="0 0 1024 1024" version="1.1" xmlns="http://www.w3.org/2000/svg" p-id="11884" xmlns:xlink="http://www.w3.org/1999/xlink" width="300" height="300"><path d="M512 926c-226.76 0-411.24-184.47-411.24-411.24S285.24 103.52 512 103.52c35.76 0 71.28 4.6 105.54 13.68 21.97 5.81 35.04 28.32 29.24 50.28-5.8 21.94-28.35 35.03-50.28 29.23-27.41-7.26-55.84-10.94-84.5-10.94-181.4 0-328.99 147.59-328.99 328.99S330.6 843.75 512 843.75s328.99-147.59 328.99-328.99c0-32.37-4.68-64.3-13.9-94.9-6.55-21.75 5.76-44.7 27.51-51.24 21.73-6.53 44.68 5.74 51.24 27.51 11.55 38.31 17.39 78.23 17.39 118.63C923.24 741.52 738.76 926 512 926z" fill="#ffffff" p-id="11885"></path><path d="M512 728.09c-117.63 0-213.33-95.7-213.33-213.33S394.37 301.43 512 301.43c22.71 0 41.12 18.41 41.12 41.12s-18.41 41.12-41.12 41.12c-72.29 0-131.08 58.79-131.08 131.08S439.71 645.84 512 645.84s131.08-58.79 131.08-131.08c0-22.71 18.41-41.12 41.12-41.12 22.71 0 41.12 18.41 41.12 41.12 0.01 117.63-95.69 213.33-213.32 213.33z" fill="#ffffff" p-id="11886"></path><path d="M512 555.88c-10.52 0-21.04-4.02-29.08-12.05-16.06-16.06-16.06-42.09 0-58.15l261.7-261.7c16.06-16.06 42.09-16.06 58.15 0s16.06 42.09 0 58.15l-261.7 261.7c-8.03 8.04-18.55 12.05-29.07 12.05z" fill="#ffffff" p-id="11887"></path><path d="M914.48 239.36l-94.01 94.01c-4.15 4.15-9.9 6.28-15.74 5.83l-99.44-7.55c-9.91-0.75-17.78-8.62-18.53-18.53l-7.55-99.44c-0.44-5.85 1.69-11.6 5.83-15.74l94.01-94.01c12.16-12.16 32.97-4.44 34.27 12.7l4.94 65c0.75 9.91 8.62 17.78 18.53 18.53l65 4.94c17.14 1.29 24.85 22.1 12.69 34.26z" fill="#ffffff" p-id="11888"></path></svg>