<?xml version="1.0" standalone="no"?><!DOCTYPE svg PUBLIC "-//W3C//DTD SVG 1.1//EN" "http://www.w3.org/Graphics/SVG/1.1/DTD/svg11.dtd"><svg t="1761532612094" class="icon" viewBox="0 0 1024 1024" version="1.1" xmlns="http://www.w3.org/2000/svg" p-id="11010" xmlns:xlink="http://www.w3.org/1999/xlink" width="300" height="300"><path d="M937.94 287.1a44.84 44.84 0 0 0-44.84 0L512 507.12 130.9 287.1a44.84 44.84 0 0 0-44.84 0c-13.88 8-22.42 22.81-22.42 38.83v465.96c0 16.03 8.54 30.82 22.42 38.84 6.94 4.01 14.67 6 22.42 6s15.48-1.99 22.42-6L512 610.68l381.1 220.03c6.94 4.01 14.67 6 22.42 6s15.48-1.99 22.42-6a44.826 44.826 0 0 0 22.42-38.84V325.93c-0.01-16.02-8.54-30.83-22.42-38.83zM153.32 714.23V403.58L422.33 558.9 153.32 714.23z m717.36 0L601.67 558.9l269.01-155.33v310.66z" fill="#2c2c2c" p-id="11011"></path><path d="M362.76 276.95h104.4v90c0 24.76 20.08 44.84 44.84 44.84 24.76 0 44.84-20.08 44.84-44.84v-90h104.43c24.76 0 44.84-20.08 44.84-44.84 0-24.76-20.08-44.84-44.84-44.84h-298.5c-24.76 0-44.84 20.08-44.84 44.84-0.01 24.77 20.07 44.84 44.83 44.84z" fill="#2c2c2c" p-id="11012"></path></svg>