<?xml version="1.0" standalone="no"?><!DOCTYPE svg PUBLIC "-//W3C//DTD SVG 1.1//EN" "http://www.w3.org/Graphics/SVG/1.1/DTD/svg11.dtd"><svg t="1763341638076" class="icon" viewBox="0 0 1024 1024" version="1.1" xmlns="http://www.w3.org/2000/svg" p-id="8941" xmlns:xlink="http://www.w3.org/1999/xlink" width="300" height="300"><path d="M795.8 956.4H224.5c-69 0-125.2-56.2-125.2-125.2V189c0-69 56.2-125.2 125.2-125.2h460c36.5 0 71 15.8 94.8 43.5l111.3 129.2c19.6 22.7 30.4 51.7 30.4 81.7v513c0 69-56.2 125.2-125.2 125.2zM224.5 153.1c-19.8 0-35.9 16.1-35.9 35.9v642.2c0 19.8 16.1 35.9 35.9 35.9h571.4c19.8 0 35.9-16.1 35.9-35.9v-513c0-8.6-3.1-16.9-8.7-23.4L711.7 165.6c-6.8-7.9-16.8-12.5-27.2-12.5h-460z" fill="#ffffff" p-id="8942"></path><path d="M679.2 493.4H341.1c-24.6 0-44.6-20-44.6-44.6V108.5c0-24.6 20-44.6 44.6-44.6h338.1c24.6 0 44.6 20 44.6 44.6v340.3c0 24.6-19.9 44.6-44.6 44.6z m-293.5-89.2h248.9V153.1H385.7v251.1z" fill="#ffffff" p-id="8943"></path><path d="M553.7 334.6c-24.6 0-44.6-20-44.6-44.6v-28.4c0-24.6 20-44.6 44.6-44.6s44.6 20 44.6 44.6V290c0.1 24.6-19.9 44.6-44.6 44.6z" fill="#ffffff" p-id="8944"></path></svg>