<?xml version="1.0" standalone="no"?><!DOCTYPE svg PUBLIC "-//W3C//DTD SVG 1.1//EN" "http://www.w3.org/Graphics/SVG/1.1/DTD/svg11.dtd"><svg t="1761841243906" class="icon" viewBox="0 0 1024 1024" version="1.1" xmlns="http://www.w3.org/2000/svg" p-id="9676" xmlns:xlink="http://www.w3.org/1999/xlink" width="300" height="300"><path d="M744.5 544.4c-10.6 0-21.1-4-29.2-12.1-16.1-16.1-16.1-42.3 0-58.4l122.5-122.5L670.4 184 547.7 306.4c-16.1 16.1-42.3 16.1-58.4 0s-16.1-42.3 0-58.4l124.9-124.9c30.9-30.9 79-33.1 107.2-4.8l182 182c28.2 28.2 26 76.3-4.9 107.2L773.6 532.3c-8 8.1-18.6 12.1-29.1 12.1z" fill="#2c2c2c" p-id="9677"></path><path d="M746.5 542.3c-10.6 0-21.1-4-29.2-12.1L491.4 304.3c-16.1-16.1-16.1-42.3 0-58.4s42.3-16.1 58.4 0l225.9 225.9c16.1 16.1 16.1 42.3 0 58.4-8 8.1-18.6 12.1-29.2 12.1z" fill="#2c2c2c" p-id="9678"></path><path d="M153.9 924.1c-15 0-29.4-5.8-39.9-16.4-13.1-13.1-18.8-32.1-15.3-50.8l43.6-231.4c4.6-24.3 17-47.5 35-65.5l312.1-312c16.1-16.1 42.3-16.1 58.4 0s16.1 42.3 0 58.4L235.7 618.5c-6.4 6.4-10.7 14.3-12.2 22.4l-36.6 194 194-36.6c8.1-1.5 16-5.9 22.4-12.2L715.4 474c16.1-16.1 42.3-16.1 58.4 0s16.1 42.3 0 58.4l-312.2 312c-18 18-41.2 30.4-65.4 35L164.7 923c-3.6 0.7-7.2 1.1-10.8 1.1z" fill="#2c2c2c" p-id="9679"></path></svg>