<?xml version="1.0" standalone="no"?><!DOCTYPE svg PUBLIC "-//W3C//DTD SVG 1.1//EN" "http://www.w3.org/Graphics/SVG/1.1/DTD/svg11.dtd"><svg t="1762339653856" class="icon" viewBox="0 0 1024 1024" version="1.1" xmlns="http://www.w3.org/2000/svg" p-id="9113" xmlns:xlink="http://www.w3.org/1999/xlink" width="300" height="300"><path d="M683.3 580.4c-12.2 0-24.4-1.8-36.5-5.4-23.8-7.2-37.2-32.3-30.1-56.1 7.2-23.8 32.2-37.3 56.1-30.1 12.7 3.8 26.4 0.4 35.7-9l116.4-116.4c6.8-6.8 10.5-15.8 10.5-25.3 0-9.6-3.7-18.6-10.5-25.3L708.6 196.5c-13.5-13.5-37.1-13.5-50.7 0L541.5 312.9c-9.2 9.2-12.7 22.7-9.1 35.2 6.7 23.9-7.2 48.8-31.1 55.5-23.9 6.8-48.8-7.2-55.5-31.1-12.4-43.8-0.1-91.1 32.1-123.3l116.4-116.4c23.8-23.8 55.4-36.9 89-36.9s65.2 13.1 89 36.9l116.4 116.4c23.8 23.8 36.9 55.4 36.9 89s-13.1 65.2-36.9 89L772.2 543.6c-24 23.9-56 36.8-88.9 36.8zM335.3 928.6c-33.6 0-65.2-13.1-89-36.9L129.8 775.3c-49-49.1-49-128.9 0-178l116.5-116.5c31.6-31.6 78.1-44.1 121.3-32.7 24 6.4 38.3 31 32 55-6.4 24-31.1 38.4-55 32-12.4-3.2-25.6 0.3-34.6 9.3L193.4 661c-14 14-14 36.7 0 50.7l116.5 116.5c13.5 13.5 37.1 13.5 50.7 0l116.5-116.5c9.2-9.2 12.7-22.7 9.1-35.2-6.7-23.9 7.2-48.8 31.1-55.5 24-6.7 48.8 7.2 55.5 31.1 12.4 43.9 0.1 91.1-32.1 123.3L424.2 891.8c-23.7 23.7-55.3 36.8-88.9 36.8z" fill="#2c2c2c" p-id="9114"></path><path d="M419.9 646.5c-11.5 0-23-4.4-31.8-13.2-17.6-17.6-17.6-46.1 0-63.6l176.4-176.4c17.6-17.6 46.1-17.6 63.6 0 17.6 17.6 17.6 46.1 0 63.6L451.7 633.4c-8.8 8.7-20.3 13.1-31.8 13.1z" fill="#2c2c2c" p-id="9115"></path></svg>