<?xml version="1.0" standalone="no"?><!DOCTYPE svg PUBLIC "-//W3C//DTD SVG 1.1//EN" "http://www.w3.org/Graphics/SVG/1.1/DTD/svg11.dtd"><svg t="1762872989468" class="icon" viewBox="0 0 1024 1024" version="1.1" xmlns="http://www.w3.org/2000/svg" p-id="8942" xmlns:xlink="http://www.w3.org/1999/xlink" width="300" height="300"><path d="M880.9 62.73H143.1c-24.91 0-45.1 20.19-45.1 45.1s20.19 45.1 45.1 45.1h737.8c24.91 0 45.1-20.19 45.1-45.1s-20.2-45.1-45.1-45.1zM543.9 212.96c-17.62-17.62-46.16-17.62-63.77 0L169.4 523.66c-17.62 17.62-17.62 46.16 0 63.77s46.16 17.62 63.77 0l233.74-233.72v562.46c0 24.91 20.19 45.1 45.1 45.1s45.1-20.19 45.1-45.1V353.72l233.72 233.72c8.81 8.81 20.35 13.21 31.89 13.21s23.08-4.4 31.89-13.21c17.62-17.62 17.62-46.16 0-63.77L543.9 212.96z" fill="#ffffff" p-id="8943"></path></svg>